0
SECTION
2
HEADER
9
$INSUNITS
70
4
9
$ACADVER
1
AC1014
9
$HANDSEED
5
FFFF
0
ENDSEC
0
SECTION
2
TABLES
0
TABLE
2
VPORT
5
8
100
AcDbSymbolTable
0
ENDTAB
0
TABLE
2
LTYPE
5
5
100
AcDbSymbolTable
0
LTYPE
5
14
100
AcDbSymbolTableRecord
100
AcDbLinetypeTableRecord
2
BYBLOCK
70
0
0
LTYPE
5
15
100
AcDbSymbolTableRecord
100
AcDbLinetypeTableRecord
2
BYLAYER
70
0
0
ENDTAB
0
TABLE
2
LAYER
5
2
100
AcDbSymbolTable
70
2
0
LAYER
5
50
100
AcDbSymbolTableRecord
100
AcDbLayerTableRecord
2
0
70
0
6
CONTINUOUS
0
ENDTAB
0
TABLE
2
STYLE
5
3
100
AcDbSymbolTable
70
1
0
STYLE
5
11
100
AcDbSymbolTableRecord
100
AcDbTextStyleTableRecord
2
STANDARD
70
0
0
ENDTAB
0
TABLE
2
VIEW
5
6
100
AcDbSymbolTable
70
0
0
ENDTAB
0
TABLE
2
UCS
5
7
100
AcDbSymbolTable
70
0
0
ENDTAB
0
TABLE
2
APPID
5
9
100
AcDbSymbolTable
70
2
0
APPID
5
12
100
AcDbSymbolTableRecord
100
AcDbRegAppTableRecord
2
ACAD
70
0
0
ENDTAB
0
TABLE
2
DIMSTYLE
5
A
100
AcDbSymbolTable
70
1
0
ENDTAB
0
TABLE
2
BLOCK_RECORD
5
1
100
AcDbSymbolTable
70
1
0
BLOCK_RECORD
5
1F
100
AcDbSymbolTableRecord
100
AcDbBlockTableRecord
2
*MODEL_SPACE
0
BLOCK_RECORD
5
1B
100
AcDbSymbolTableRecord
100
AcDbBlockTableRecord
2
*PAPER_SPACE
0
ENDTAB
0
ENDSEC
0
SECTION
2
BLOCKS
0
BLOCK
5
20
100
AcDbEntity
100
AcDbBlockBegin
2
*MODEL_SPACE
0
ENDBLK
5
21
100
AcDbEntity
100
AcDbBlockEnd
0
BLOCK
5
1C
100
AcDbEntity
100
AcDbBlockBegin
2
*PAPER_SPACE
0
ENDBLK
5
1D
100
AcDbEntity
100
AcDbBlockEnd
0
ENDSEC
0
SECTION
2
ENTITIES
0
LWPOLYLINE
5
100
100
AcDbEntity
8
0
100
AcDbPolyline
90
92
70
1
43
0.0
10
17.923427100000001
20
12.320710699999999
10
17.923427100000001
20
9.7792892999999985
10
17.894137799999999
20
9.75
10
15.50921355
20
9.75
10
15.509213550000002
20
7.3499999999999996
10
17.894137799999999
20
7.3499999999999996
10
17.923427100000001
20
7.3207106999999985
10
17.923427100000001
20
4.7792892999999994
10
17.894137799999999
20
4.75
10
15.50921355
20
4.75
10
15.509213550000002
20
2.3499999999999996
10
17.894137799999999
20
2.3499999999999996
10
17.923427100000001
20
2.3207107000000002
10
17.923427100000001
20
1.0292892999999999
10
17.894137799999999
20
0.99999999999999956
10
15.261713549999998
20
0.99999999999999956
10
15.261713549999998
20
0.029289299999999963
10
15.232424250000001
20
-2.7755575615628914e-16
10
12.691002900000001
20
-2.7755575615628914e-16
10
12.66171355
20
0.029289299999999963
10
12.661713549999998
20
0.99999999999999956
10
10.26171355
20
0.99999999999999956
10
10.26171355
20
0.029289299999999963
10
10.232424249999998
20
-2.7755575615628914e-16
10
7.6910029000000026
20
-2.7755575615628914e-16
10
7.6617135500000009
20
0.029289299999999963
10
7.6617135500000009
20
0.99999999999999956
10
5.2617135499999996
20
0.99999999999999978
10
5.2617135499999996
20
0.029289299999999963
10
5.2324242500000011
20
-2.7755575615628914e-16
10
2.6910029
20
-2.7755575615628914e-16
10
2.6617135499999995
20
0.029289299999999963
10
2.6617135499999995
20
0.99999999999999956
10
2.4435028999999999
20
0.99999999999999956
10
2.4142135499999995
20
1.0292892999999999
10
2.414213549999999
20
2.25
10
0.029289299999999997
20
2.25
10
0
20
2.2792892999999994
10
0
20
4.8207106999999993
10
0.02928930000000024
20
4.8499999999999988
10
2.4142135499999995
20
4.8499999999999988
10
2.4142135499999995
20
7.25
10
0.029289299999999997
20
7.25
10
0
20
7.2792892999999994
10
0
20
9.8207106999999976
10
0.029289299999999963
20
9.8499999999999996
10
2.4142135499999995
20
9.8499999999999996
10
2.4142135499999995
20
12.249999999999996
10
0.029289299999999997
20
12.249999999999996
10
0
20
12.2792893
10
0
20
14.820710699999999
10
0.029289299999999963
20
14.849999999999998
10
2.4142135499999995
20
14.849999999999998
10
2.414213549999999
20
17.25
10
0.029289299999999997
20
17.25
10
0
20
17.279289300000006
10
0
20
19.820710699999999
10
0.029289299999999963
20
19.850000000000001
10
2.4142135499999995
20
19.850000000000001
10
2.4142135499999995
20
21.070710699999999
10
2.4435028999999999
20
21.100000000000001
10
2.6617135499999995
20
21.100000000000001
10
2.66171355
20
22.070710699999999
10
2.6910029
20
22.100000000000001
10
5.2324242500000011
20
22.100000000000001
10
5.2617135499999996
20
22.070710699999999
10
5.2617135499999996
20
21.100000000000001
10
7.6617135500000009
20
21.100000000000001
10
7.66171355
20
22.070710699999999
10
7.6910029
20
22.100000000000001
10
10.232424249999998
20
22.100000000000001
10
10.26171355
20
22.070710699999999
10
10.261713550000003
20
21.100000000000001
10
12.66171355
20
21.100000000000001
10
12.661713549999998
20
22.070710699999999
10
12.691002899999999
20
22.100000000000001
10
15.232424250000001
20
22.100000000000001
10
15.261713549999998
20
22.070710699999999
10
15.261713549999998
20
21.100000000000001
10
17.894137799999999
20
21.099999999999998
10
17.923427100000001
20
21.070710699999999
10
17.923427100000001
20
19.779289300000002
10
17.894137799999999
20
19.75
10
15.50921355
20
19.75
10
15.509213550000002
20
17.350000000000001
10
17.894137799999999
20
17.350000000000001
10
17.923427100000001
20
17.320710699999999
10
17.923427100000001
20
14.779289300000006
10
17.894137799999999
20
14.75
10
15.50921355
20
14.75
10
15.509213550000002
20
12.349999999999998
10
17.894137799999999
20
12.350000000000003
0
LINE
5
101
100
AcDbEntity
8
0
100
AcDbLine
10
9.8526082249999973
20
12.925000000000002
30
0
11
7.8526082250000009
21
12.925000000000002
31
0
0
LINE
5
102
100
AcDbEntity
8
0
100
AcDbLine
10
7.8526082250000009
20
12.925000000000002
30
0
11
7.8526082250000009
21
9.1750000000000025
31
0
0
LINE
5
103
100
AcDbEntity
8
0
100
AcDbLine
10
7.8526082250000009
20
9.1750000000000025
30
0
11
9.8526082249999973
21
9.1750000000000025
31
0
0
LINE
5
104
100
AcDbEntity
8
0
100
AcDbLine
10
9.8526082249999973
20
9.1750000000000025
30
0
11
9.8526082249999973
21
12.925000000000002
31
0
0
LINE
5
105
100
AcDbEntity
8
0
100
AcDbLine
10
9.8526082249999973
20
12.925000000000002
30
0
11
7.8526082250000009
21
9.1750000000000025
31
0
0
LINE
5
106
100
AcDbEntity
8
0
100
AcDbLine
10
7.8526082250000009
20
12.925000000000002
30
0
11
9.8526082249999973
21
9.1750000000000025
31
0
0
ENDSEC
0
SECTION
2
OBJECTS
0
DICTIONARY
5
C
100
AcDbDictionary
3
ACAD_GROUP
350
D
3
ACAD_MLINESTYLE
350
17
0
DICTIONARY
5
D
100
AcDbDictionary
0
DICTIONARY
5
1A
330
C
100
AcDbDictionary
0
DICTIONARY
5
17
100
AcDbDictionary
0
ENDSEC
0
EOF
