0
SECTION
2
HEADER
9
$INSUNITS
70
4
9
$ACADVER
1
AC1014
9
$HANDSEED
5
FFFF
0
ENDSEC
0
SECTION
2
TABLES
0
TABLE
2
VPORT
5
8
100
AcDbSymbolTable
0
ENDTAB
0
TABLE
2
LTYPE
5
5
100
AcDbSymbolTable
0
LTYPE
5
14
100
AcDbSymbolTableRecord
100
AcDbLinetypeTableRecord
2
BYBLOCK
70
0
0
LTYPE
5
15
100
AcDbSymbolTableRecord
100
AcDbLinetypeTableRecord
2
BYLAYER
70
0
0
ENDTAB
0
TABLE
2
LAYER
5
2
100
AcDbSymbolTable
70
2
0
LAYER
5
50
100
AcDbSymbolTableRecord
100
AcDbLayerTableRecord
2
0
70
0
6
CONTINUOUS
0
ENDTAB
0
TABLE
2
STYLE
5
3
100
AcDbSymbolTable
70
1
0
STYLE
5
11
100
AcDbSymbolTableRecord
100
AcDbTextStyleTableRecord
2
STANDARD
70
0
0
ENDTAB
0
TABLE
2
VIEW
5
6
100
AcDbSymbolTable
70
0
0
ENDTAB
0
TABLE
2
UCS
5
7
100
AcDbSymbolTable
70
0
0
ENDTAB
0
TABLE
2
APPID
5
9
100
AcDbSymbolTable
70
2
0
APPID
5
12
100
AcDbSymbolTableRecord
100
AcDbRegAppTableRecord
2
ACAD
70
0
0
ENDTAB
0
TABLE
2
DIMSTYLE
5
A
100
AcDbSymbolTable
70
1
0
ENDTAB
0
TABLE
2
BLOCK_RECORD
5
1
100
AcDbSymbolTable
70
1
0
BLOCK_RECORD
5
1F
100
AcDbSymbolTableRecord
100
AcDbBlockTableRecord
2
*MODEL_SPACE
0
BLOCK_RECORD
5
1B
100
AcDbSymbolTableRecord
100
AcDbBlockTableRecord
2
*PAPER_SPACE
0
ENDTAB
0
ENDSEC
0
SECTION
2
BLOCKS
0
BLOCK
5
20
100
AcDbEntity
100
AcDbBlockBegin
2
*MODEL_SPACE
0
ENDBLK
5
21
100
AcDbEntity
100
AcDbBlockEnd
0
BLOCK
5
1C
100
AcDbEntity
100
AcDbBlockBegin
2
*PAPER_SPACE
0
ENDBLK
5
1D
100
AcDbEntity
100
AcDbBlockEnd
0
ENDSEC
0
SECTION
2
ENTITIES
0
LWPOLYLINE
5
100
100
AcDbEntity
8
0
100
AcDbPolyline
90
160
70
1
43
0.0
10
8.2753660500000024
20
4.142775900000002
10
6.4783098000000008
20
5.9398321499999973
10
6.4783098000000008
20
5.9812535000000011
10
7.1647059000000004
20
6.6676496000000007
10
5.4676495999999997
20
8.3647059000000024
10
4.7812535
20
7.6783098000000027
10
4.7398321500000007
20
7.6783098000000027
10
2.9427759
20
9.4753660499999981
10
2.9427759
20
9.5167874000000019
10
3.6291720000000005
20
10.203183500000002
10
1.9321157
20
11.900239799999994
10
1.2457196000000001
20
11.213843700000004
10
1.2042982500000001
20
11.213843700000012
10
0.0076120500000000004
20
12.4105299
10
0
20
12.428907000000002
10
0
20
14.121276849999997
10
0.029289299999999963
20
14.150566200000005
10
1
20
14.150566200000005
10
1
20
16.550566200000006
10
0.029289299999999997
20
16.550566200000006
10
0
20
16.579855500000011
10
0
20
19.121276849999997
10
0.029289299999999963
20
19.150566199999997
10
1
20
19.150566199999997
10
1
20
21.550566199999999
10
0.029289299999999997
20
21.550566199999999
10
0
20
21.579855500000011
10
0
20
24.121276849999987
10
0.029289299999999963
20
24.150566199999997
10
1
20
24.150566199999997
10
1
20
26.550566200000006
10
0.029289299999999997
20
26.550566200000006
10
0
20
26.579855500000001
10
0
20
28.272225349999999
10
0.0076120500000000091
20
28.290602450000009
10
1.2042982499999999
20
29.487288649999996
10
1.2457196000000001
20
29.487288649999996
10
1.9321157000000002
20
28.800892549999997
10
3.6291720000000005
20
30.497948850000007
10
2.9427759
20
31.184344949999996
10
2.9427759
20
31.225766299999993
10
4.7398321500000007
20
33.022822599999998
10
4.7812535
20
33.022822599999998
10
5.4676495999999997
20
32.336426500000002
10
7.1647059000000004
20
34.03348274999999
10
6.4783098000000008
20
34.719878849999986
10
6.4783097999999999
20
34.761300199999994
10
8.2753660500000006
20
36.558356499999988
10
8.3167874000000008
20
36.558356499999988
10
9.0031835000000004
20
35.871960400000006
10
10.7002398
20
37.569016650000009
10
10.013843700000001
20
38.255412749999991
10
10.013843700000001
20
38.296834099999977
10
11.210529899999999
20
39.4935203
10
11.228907000000001
20
39.501132349999999
10
12.921276849999998
20
39.501132349999978
10
12.950566200000001
20
39.471843050000018
10
12.950566200000001
20
38.501132350000006
10
15.350566199999998
20
38.501132349999985
10
15.350566199999998
20
39.471843050000004
10
15.3798555
20
39.501132349999999
10
17.921276850000002
20
39.501132349999999
10
17.950566199999997
20
39.471843050000018
10
17.950566199999997
20
38.501132350000006
10
20.350566199999996
20
38.501132350000006
10
20.350566199999996
20
39.471843050000004
10
20.379855499999998
20
39.501132349999999
10
22.921276850000002
20
39.501132349999999
10
22.950566199999997
20
39.471843050000018
10
22.950566199999997
20
38.501132350000006
10
25.350566200000003
20
38.501132349999985
10
25.350566200000003
20
39.471843050000004
10
25.379855499999991
20
39.501132349999999
10
27.07222535
20
39.501132349999978
10
27.090602449999999
20
39.4935203
10
28.287288649999994
20
38.296834099999977
10
28.287288649999994
20
38.255412749999991
10
27.600892550000001
20
37.569016650000009
10
29.297948850000004
20
35.871960400000006
10
29.984344950000001
20
36.558356499999988
10
30.025766300000004
20
36.558356499999988
10
31.822822600000006
20
34.761300199999994
10
31.822822600000006
20
34.719878850000008
10
31.136426499999999
20
34.033482750000005
10
32.833482750000002
20
32.336426500000002
10
33.519878850000005
20
33.022822599999998
10
33.561300200000005
20
33.022822599999998
10
35.358356499999999
20
31.225766299999993
10
35.358356499999999
20
31.184344949999996
10
34.671960399999989
20
30.497948850000007
10
36.369016649999992
20
28.800892549999997
10
37.055412750000002
20
29.487288649999996
10
37.096834100000002
20
29.487288649999996
10
38.293520299999997
20
28.290602450000009
10
38.301132350000003
20
28.272225349999999
10
38.301132350000003
20
26.579855500000001
10
38.271843049999994
20
26.550566200000006
10
37.301132350000003
20
26.550566200000006
10
37.301132350000003
20
24.150566199999997
10
38.271843049999994
20
24.150566199999997
10
38.301132350000003
20
24.121276849999997
10
38.301132350000003
20
21.579855500000011
10
38.271843049999994
20
21.550566199999999
10
37.301132350000003
20
21.550566199999999
10
37.301132350000003
20
19.150566199999997
10
38.271843049999994
20
19.150566200000007
10
38.301132350000003
20
19.121276849999997
10
38.301132350000003
20
16.579855500000011
10
38.271843049999994
20
16.550566200000006
10
37.301132350000003
20
16.550566200000006
10
37.301132350000003
20
14.150566200000005
10
38.271843049999994
20
14.150566200000005
10
38.301132350000003
20
14.121276849999997
10
38.301132350000003
20
12.428907000000002
10
38.293520299999997
20
12.4105299
10
37.096834100000002
20
11.213843700000004
10
37.055412750000002
20
11.213843700000004
10
36.369016649999999
20
11.900239800000003
10
34.671960399999989
20
10.203183499999993
10
35.358356499999999
20
9.516787399999993
10
35.358356499999999
20
9.4753660499999981
10
33.561300200000005
20
7.6783098000000027
10
33.519878850000005
20
7.6783098000000027
10
32.833482750000002
20
8.3647059000000024
10
31.136426499999999
20
6.6676496000000007
10
31.822822600000006
20
5.98125350000001
10
31.822822600000006
20
5.9398321499999973
10
30.025766300000004
20
4.1427758999999931
10
29.984344949999997
20
4.142775900000002
10
29.297948850000001
20
4.8291720000000016
10
27.600892550000001
20
3.1321156999999999
10
28.287288649999994
20
2.4457196000000003
10
28.287288649999994
20
2.4042982499999965
10
27.090602449999999
20
1.2076120499999909
10
27.072225350000004
20
1.2000000000000011
10
25.379855499999998
20
1.2000000000000011
10
25.350566200000003
20
1.229289299999996
10
25.350566200000003
20
2.2000000000000064
10
22.950566199999997
20
2.2000000000000064
10
22.950566199999997
20
1.229289299999996
10
22.921276850000002
20
1.2000000000000011
10
20.379855499999998
20
1.2000000000000011
10
20.350566199999996
20
1.229289299999996
10
20.350566199999996
20
2.2000000000000064
10
17.950566199999997
20
2.2000000000000064
10
17.950566199999997
20
1.229289299999996
10
17.921276850000002
20
1.2000000000000011
10
15.3798555
20
1.2000000000000011
10
15.350566199999998
20
1.229289299999996
10
15.350566199999998
20
2.2000000000000064
10
12.950566200000001
20
2.2000000000000064
10
12.950566200000001
20
1.229289299999996
10
12.921276849999998
20
1.2000000000000011
10
11.228907000000001
20
1.2000000000000011
10
11.210529899999999
20
1.2076120499999909
10
10.013843700000001
20
2.4042982499999965
10
10.013843700000001
20
2.4457196000000003
10
10.7002398
20
3.1321156999999999
10
9.0031835000000004
20
4.8291720000000016
10
8.3167874000000008
20
4.1427758999999931
0
CIRCLE
5
101
100
AcDbEntity
8
0
100
AcDbCircle
10
19.154372200000005
20
20.341377625
30
0
40
5
210
0
220
0
230
1
0
ENDSEC
0
SECTION
2
OBJECTS
0
DICTIONARY
5
C
100
AcDbDictionary
3
ACAD_GROUP
350
D
3
ACAD_MLINESTYLE
350
17
0
DICTIONARY
5
D
100
AcDbDictionary
0
DICTIONARY
5
1A
330
C
100
AcDbDictionary
0
DICTIONARY
5
17
100
AcDbDictionary
0
ENDSEC
0
EOF
