0
SECTION
2
HEADER
9
$INSUNITS
70
4
9
$ACADVER
1
AC1014
9
$HANDSEED
5
FFFF
0
ENDSEC
0
SECTION
2
TABLES
0
TABLE
2
VPORT
5
8
100
AcDbSymbolTable
0
ENDTAB
0
TABLE
2
LTYPE
5
5
100
AcDbSymbolTable
0
LTYPE
5
14
100
AcDbSymbolTableRecord
100
AcDbLinetypeTableRecord
2
BYBLOCK
70
0
0
LTYPE
5
15
100
AcDbSymbolTableRecord
100
AcDbLinetypeTableRecord
2
BYLAYER
70
0
0
ENDTAB
0
TABLE
2
LAYER
5
2
100
AcDbSymbolTable
70
2
0
LAYER
5
50
100
AcDbSymbolTableRecord
100
AcDbLayerTableRecord
2
0
70
0
6
CONTINUOUS
0
ENDTAB
0
TABLE
2
STYLE
5
3
100
AcDbSymbolTable
70
1
0
STYLE
5
11
100
AcDbSymbolTableRecord
100
AcDbTextStyleTableRecord
2
STANDARD
70
0
0
ENDTAB
0
TABLE
2
VIEW
5
6
100
AcDbSymbolTable
70
0
0
ENDTAB
0
TABLE
2
UCS
5
7
100
AcDbSymbolTable
70
0
0
ENDTAB
0
TABLE
2
APPID
5
9
100
AcDbSymbolTable
70
2
0
APPID
5
12
100
AcDbSymbolTableRecord
100
AcDbRegAppTableRecord
2
ACAD
70
0
0
ENDTAB
0
TABLE
2
DIMSTYLE
5
A
100
AcDbSymbolTable
70
1
0
ENDTAB
0
TABLE
2
BLOCK_RECORD
5
1
100
AcDbSymbolTable
70
1
0
BLOCK_RECORD
5
1F
100
AcDbSymbolTableRecord
100
AcDbBlockTableRecord
2
*MODEL_SPACE
0
BLOCK_RECORD
5
1B
100
AcDbSymbolTableRecord
100
AcDbBlockTableRecord
2
*PAPER_SPACE
0
ENDTAB
0
ENDSEC
0
SECTION
2
BLOCKS
0
BLOCK
5
20
100
AcDbEntity
100
AcDbBlockBegin
2
*MODEL_SPACE
0
ENDBLK
5
21
100
AcDbEntity
100
AcDbBlockEnd
0
BLOCK
5
1C
100
AcDbEntity
100
AcDbBlockBegin
2
*PAPER_SPACE
0
ENDBLK
5
1D
100
AcDbEntity
100
AcDbBlockEnd
0
ENDSEC
0
SECTION
2
ENTITIES
0
LWPOLYLINE
5
100
100
AcDbEntity
8
0
100
AcDbPolyline
90
62
70
1
43
0.0
10
25.1697056
20
3
10
22.570294399999998
20
3
10
22.5
20
3.0702943999999999
10
22.5
20
4.9999999999999991
10
18.739999999999998
20
5
10
18.739999999999998
20
3.0702943999999999
10
18.6697056
20
3
10
14.570294400000003
20
3
10
14.5
20
3.0702943999999999
10
14.5
20
4.9999999999999991
10
10.74
20
4.9999999999999991
10
10.74
20
3.0702943999999999
10
10.6697056
20
3
10
6.5702944000000016
20
3
10
6.5
20
3.0702943999999999
10
6.5
20
4.9999999999999991
10
2.7400000000000002
20
4.9999999999999991
10
2.7400000000000002
20
3.0702943999999999
10
2.6697055999999995
20
3
10
0.070294399999999993
20
3
10
0
20
3.0702943999999999
10
0
20
5.6697056000000003
10
0.070294399999999979
20
5.7400000000000002
10
2
20
5.7400000000000002
10
2
20
9.5
10
0.070294399999999993
20
9.5
10
0
20
9.5702943999999999
10
0
20
13.669705599999997
10
0.070294400000000257
20
13.739999999999998
10
2
20
13.739999999999998
10
2
20
17.5
10
0.070294399999999993
20
17.500000000000004
10
0
20
17.570294399999998
10
0
20
21.6697056
10
0.070294399999999979
20
21.739999999999998
10
2
20
21.739999999999998
10
2
20
25.5
10
0.070294399999999993
20
25.5
10
0
20
25.570294400000002
10
0
20
28.169705600000007
10
0.070294400000001644
20
28.239999999999995
10
25.1697056
20
28.239999999999995
10
25.240000000000002
20
28.169705600000007
10
25.240000000000002
20
25.570294400000002
10
25.1697056
20
25.5
10
23.239999999999998
20
25.5
10
23.239999999999998
20
21.739999999999998
10
25.1697056
20
21.739999999999998
10
25.240000000000002
20
21.6697056
10
25.240000000000002
20
17.570294399999998
10
25.1697056
20
17.5
10
23.239999999999998
20
17.5
10
23.239999999999998
20
13.739999999999998
10
25.1697056
20
13.740000000000002
10
25.240000000000002
20
13.6697056
10
25.240000000000002
20
9.5702943999999999
10
25.1697056
20
9.5
10
23.239999999999998
20
9.5
10
23.239999999999998
20
5.7400000000000002
10
25.1697056
20
5.7400000000000002
10
25.240000000000002
20
5.6697055999999986
10
25.240000000000002
20
3.0702943999999999
0
LWPOLYLINE
5
101
100
AcDbEntity
8
0
100
AcDbPolyline
90
62
70
1
43
0.0
10
53.409705599999995
20
13.499999999999998
10
51.479999999999997
20
13.499999999999998
10
51.479999999999997
20
9.7400000000000002
10
53.409705599999995
20
9.7400000000000002
10
53.479999999999997
20
9.6697056000000003
10
53.480000000000004
20
5.5702944000000008
10
53.409705599999995
20
5.5
10
51.479999999999997
20
5.5
10
51.479999999999997
20
3.0702943999999999
10
51.409705600000002
20
3
10
50.810294400000004
20
3
10
50.740000000000009
20
3.0702943999999999
10
50.739999999999995
20
4.9999999999999991
10
46.979999999999997
20
4.9999999999999991
10
46.979999999999997
20
3.0702943999999999
10
46.909705600000002
20
3
10
42.810294399999989
20
3
10
42.740000000000002
20
3.0702943999999999
10
42.740000000000002
20
4.9999999999999991
10
38.979999999999997
20
5
10
38.979999999999997
20
3.0702943999999999
10
38.909705600000002
20
3
10
34.810294399999997
20
3
10
34.740000000000002
20
3.0702943999999999
10
34.740000000000002
20
4.9999999999999991
10
30.979999999999997
20
5
10
30.979999999999997
20
3.0702943999999999
10
30.909705600000006
20
3
10
30.310294399999997
20
3
10
30.240000000000002
20
3.0702943999999999
10
30.240000000000002
20
5.5
10
28.310294399999997
20
5.5
10
28.239999999999995
20
5.5702944000000008
10
28.239999999999995
20
9.6697056000000003
10
28.310294399999997
20
9.7400000000000002
10
30.240000000000002
20
9.7400000000000002
10
30.240000000000002
20
13.499999999999998
10
28.310294399999997
20
13.499999999999998
10
28.239999999999995
20
13.5702944
10
28.239999999999995
20
17.6697056
10
28.310294399999997
20
17.739999999999998
10
30.240000000000002
20
17.739999999999998
10
30.240000000000002
20
21.5
10
28.310294399999997
20
21.5
10
28.239999999999995
20
21.570294399999995
10
28.239999999999995
20
25.6697056
10
28.310294399999997
20
25.739999999999998
10
30.240000000000002
20
25.739999999999998
10
30.240000000000002
20
28.169705600000007
10
30.310294399999997
20
28.239999999999995
10
51.409705600000002
20
28.239999999999995
10
51.479999999999997
20
28.169705600000007
10
51.479999999999997
20
25.739999999999998
10
53.409705599999995
20
25.739999999999998
10
53.479999999999997
20
25.6697056
10
53.479999999999997
20
21.570294399999995
10
53.409705599999995
20
21.5
10
51.479999999999997
20
21.5
10
51.479999999999997
20
17.739999999999998
10
53.409705599999988
20
17.739999999999998
10
53.479999999999997
20
17.6697056
10
53.480000000000004
20
13.5702944
0
LWPOLYLINE
5
102
100
AcDbEntity
8
0
100
AcDbPolyline
90
62
70
1
43
0.0
10
0.070294400000000257
20
41.979999999999997
10
2
20
41.979999999999997
10
1.9999999999999998
20
45.739999999999995
10
0.070294399999999993
20
45.739999999999995
10
0
20
45.810294400000004
10
0
20
49.909705600000002
10
0.070294400000000257
20
49.97999999999999
10
2
20
49.97999999999999
10
1.9999999999999998
20
53.740000000000009
10
0.070294399999999993
20
53.740000000000009
10
0
20
53.810294399999997
10
0
20
56.409705599999995
10
0.070294400000001644
20
56.47999999999999
10
25.1697056
20
56.47999999999999
10
25.240000000000002
20
56.409705599999995
10
25.240000000000002
20
53.810294399999997
10
25.1697056
20
53.740000000000009
10
23.239999999999998
20
53.740000000000009
10
23.239999999999998
20
49.97999999999999
10
25.1697056
20
49.97999999999999
10
25.240000000000002
20
49.909705600000002
10
25.240000000000002
20
45.810294399999989
10
25.1697056
20
45.739999999999995
10
23.239999999999998
20
45.739999999999995
10
23.239999999999998
20
41.979999999999997
10
25.1697056
20
41.979999999999997
10
25.240000000000002
20
41.909705600000002
10
25.240000000000002
20
37.810294399999989
10
25.1697056
20
37.740000000000002
10
23.239999999999998
20
37.740000000000002
10
23.239999999999998
20
33.979999999999997
10
25.1697056
20
33.979999999999997
10
25.240000000000002
20
33.909705600000002
10
25.240000000000002
20
31.310294399999997
10
25.1697056
20
31.239999999999995
10
22.570294399999998
20
31.239999999999995
10
22.5
20
31.310294399999997
10
22.5
20
33.240000000000002
10
18.739999999999998
20
33.240000000000002
10
18.739999999999998
20
31.310294399999997
10
18.6697056
20
31.239999999999995
10
14.570294400000003
20
31.239999999999995
10
14.5
20
31.310294399999997
10
14.5
20
33.240000000000002
10
10.74
20
33.240000000000002
10
10.74
20
31.310294399999997
10
10.6697056
20
31.239999999999995
10
6.5702944000000016
20
31.239999999999995
10
6.5
20
31.310294399999997
10
6.5
20
33.240000000000002
10
2.7400000000000002
20
33.240000000000002
10
2.7400000000000002
20
31.310294399999997
10
2.6697055999999995
20
31.239999999999995
10
0.070294399999999993
20
31.239999999999995
10
0
20
31.310294399999997
10
0
20
33.909705600000002
10
0.070294400000000257
20
33.979999999999997
10
2
20
33.979999999999997
10
2
20
37.740000000000002
10
0.070294399999999993
20
37.739999999999995
10
0
20
37.810294399999989
10
0
20
41.909705600000002
0
LWPOLYLINE
5
103
100
AcDbEntity
8
0
100
AcDbPolyline
90
62
70
1
43
0.0
10
28.239999999999995
20
33.810294399999997
10
28.239999999999995
20
37.909705600000002
10
28.310294399999997
20
37.979999999999997
10
30.240000000000002
20
37.979999999999997
10
30.240000000000002
20
41.740000000000002
10
28.310294399999997
20
41.740000000000002
10
28.239999999999995
20
41.810294399999997
10
28.239999999999995
20
45.909705600000009
10
28.310294399999997
20
45.979999999999997
10
30.240000000000002
20
45.979999999999997
10
30.240000000000002
20
49.740000000000002
10
28.310294399999997
20
49.740000000000002
10
28.239999999999995
20
49.810294399999997
10
28.239999999999995
20
53.909705599999995
10
28.310294399999997
20
53.979999999999997
10
30.240000000000002
20
53.979999999999997
10
30.240000000000002
20
56.409705599999995
10
30.310294399999997
20
56.47999999999999
10
51.409705600000002
20
56.47999999999999
10
51.479999999999997
20
56.409705599999995
10
51.479999999999997
20
53.979999999999997
10
53.409705599999988
20
53.97999999999999
10
53.479999999999997
20
53.909705599999995
10
53.479999999999997
20
49.810294399999997
10
53.409705599999995
20
49.740000000000002
10
51.479999999999997
20
49.740000000000002
10
51.479999999999997
20
45.979999999999997
10
53.409705599999988
20
45.979999999999997
10
53.479999999999997
20
45.909705600000009
10
53.479999999999997
20
41.810294399999997
10
53.409705599999995
20
41.740000000000002
10
51.479999999999997
20
41.740000000000002
10
51.479999999999997
20
37.979999999999997
10
53.409705599999995
20
37.979999999999997
10
53.479999999999997
20
37.909705600000009
10
53.480000000000004
20
33.810294399999997
10
53.409705599999995
20
33.740000000000002
10
51.479999999999997
20
33.740000000000002
10
51.479999999999997
20
31.310294399999997
10
51.409705600000002
20
31.239999999999995
10
50.810294400000004
20
31.239999999999995
10
50.740000000000009
20
31.310294399999997
10
50.740000000000009
20
33.240000000000002
10
46.979999999999997
20
33.240000000000002
10
46.979999999999997
20
31.310294399999997
10
46.909705600000002
20
31.239999999999995
10
42.810294399999989
20
31.239999999999995
10
42.740000000000002
20
31.310294399999997
10
42.740000000000002
20
33.240000000000002
10
38.979999999999997
20
33.240000000000002
10
38.979999999999997
20
31.310294399999997
10
38.909705600000002
20
31.239999999999995
10
34.810294399999997
20
31.239999999999995
10
34.740000000000002
20
31.310294399999997
10
34.740000000000002
20
33.240000000000002
10
30.979999999999997
20
33.240000000000002
10
30.979999999999997
20
31.310294399999997
10
30.909705600000006
20
31.239999999999995
10
30.310294399999997
20
31.239999999999995
10
30.240000000000002
20
31.310294399999997
10
30.240000000000002
20
33.740000000000002
10
28.310294399999997
20
33.740000000000002
0
LWPOLYLINE
5
104
100
AcDbEntity
8
0
100
AcDbPolyline
90
80
70
1
43
0.0
10
74.980000000000018
20
4.9999999999999991
10
71.219999999999999
20
4.9999999999999991
10
71.219999999999999
20
3.0702943999999999
10
71.149705600000004
20
3
10
67.050294399999999
20
3
10
66.980000000000018
20
3.0702943999999999
10
66.980000000000018
20
4.9999999999999991
10
63.219999999999999
20
5
10
63.219999999999999
20
3.0702943999999999
10
63.14970559999999
20
3
10
59.050294399999991
20
3
10
58.979999999999997
20
3.0702943999999999
10
58.979999999999997
20
4.9999999999999991
10
58.550294399999999
20
4.9999999999999991
10
58.479999999999997
20
5.0702944000000008
10
58.479999999999997
20
5.5
10
56.550294399999999
20
5.5
10
56.47999999999999
20
5.5702944000000008
10
56.47999999999999
20
9.6697056000000003
10
56.550294399999999
20
9.7400000000000002
10
58.479999999999997
20
9.7399999999999984
10
58.479999999999997
20
13.499999999999998
10
56.550294399999999
20
13.499999999999998
10
56.47999999999999
20
13.5702944
10
56.47999999999999
20
17.6697056
10
56.550294399999999
20
17.739999999999998
10
58.479999999999997
20
17.739999999999998
10
58.479999999999997
20
21.5
10
56.550294399999999
20
21.5
10
56.47999999999999
20
21.570294399999995
10
56.47999999999999
20
25.6697056
10
56.550294399999999
20
25.739999999999998
10
58.479999999999997
20
25.739999999999998
10
58.47999999999999
20
26.1697056
10
58.550294399999999
20
26.239999999999995
10
58.979999999999997
20
26.239999999999995
10
58.979999999999997
20
28.169705600000007
10
59.050294399999991
20
28.239999999999995
10
63.14970559999999
20
28.239999999999995
10
63.219999999999999
20
28.169705600000007
10
63.219999999999999
20
26.239999999999995
10
66.980000000000018
20
26.239999999999995
10
66.980000000000018
20
28.169705600000007
10
67.050294399999999
20
28.239999999999995
10
71.149705600000004
20
28.239999999999995
10
71.219999999999999
20
28.169705600000007
10
71.219999999999999
20
26.239999999999995
10
74.980000000000004
20
26.239999999999995
10
74.980000000000004
20
28.169705600000007
10
75.050294399999999
20
28.239999999999995
10
79.149705600000004
20
28.239999999999995
10
79.219999999999999
20
28.169705600000007
10
79.219999999999999
20
26.239999999999995
10
79.649705600000004
20
26.239999999999995
10
79.719999999999999
20
26.169705600000004
10
79.719999999999999
20
25.739999999999998
10
81.649705600000004
20
25.739999999999998
10
81.719999999999999
20
25.6697056
10
81.719999999999999
20
21.570294399999995
10
81.649705600000004
20
21.5
10
79.719999999999999
20
21.5
10
79.719999999999999
20
17.739999999999998
10
81.649705600000004
20
17.739999999999998
10
81.719999999999999
20
17.6697056
10
81.719999999999999
20
13.5702944
10
81.649705600000004
20
13.499999999999998
10
79.719999999999999
20
13.499999999999998
10
79.719999999999999
20
9.7400000000000002
10
81.649705600000004
20
9.7400000000000002
10
81.719999999999999
20
9.6697056000000003
10
81.719999999999999
20
5.5702944000000008
10
81.649705600000004
20
5.5
10
79.719999999999999
20
5.5
10
79.719999999999999
20
5.0702944000000008
10
79.649705600000004
20
4.9999999999999991
10
79.219999999999999
20
5
10
79.219999999999985
20
3.0702943999999999
10
79.14970559999999
20
3
10
75.050294399999999
20
3
10
74.980000000000004
20
3.0702943999999999
0
LINE
5
105
100
AcDbEntity
8
0
100
AcDbLine
10
70.099999999999994
20
17.495000000000005
30
0
11
68.100000000000009
21
17.495000000000005
31
0
0
LINE
5
106
100
AcDbEntity
8
0
100
AcDbLine
10
68.100000000000009
20
17.495000000000005
30
0
11
68.100000000000009
21
13.745000000000003
31
0
0
LINE
5
107
100
AcDbEntity
8
0
100
AcDbLine
10
68.100000000000009
20
13.745000000000003
30
0
11
70.099999999999994
21
13.745000000000003
31
0
0
LINE
5
108
100
AcDbEntity
8
0
100
AcDbLine
10
70.099999999999994
20
13.745000000000003
30
0
11
70.099999999999994
21
17.495000000000005
31
0
0
LINE
5
109
100
AcDbEntity
8
0
100
AcDbLine
10
70.099999999999994
20
17.495000000000005
30
0
11
68.100000000000009
21
13.745000000000003
31
0
0
LINE
5
110
100
AcDbEntity
8
0
100
AcDbLine
10
68.100000000000009
20
17.495000000000005
30
0
11
70.099999999999994
21
13.745000000000003
31
0
0
ENDSEC
0
SECTION
2
OBJECTS
0
DICTIONARY
5
C
100
AcDbDictionary
3
ACAD_GROUP
350
D
3
ACAD_MLINESTYLE
350
17
0
DICTIONARY
5
D
100
AcDbDictionary
0
DICTIONARY
5
1A
330
C
100
AcDbDictionary
0
DICTIONARY
5
17
100
AcDbDictionary
0
ENDSEC
0
EOF
