0
SECTION
2
HEADER
9
$INSUNITS
70
4
9
$ACADVER
1
AC1014
9
$HANDSEED
5
FFFF
0
ENDSEC
0
SECTION
2
TABLES
0
TABLE
2
VPORT
5
8
100
AcDbSymbolTable
0
ENDTAB
0
TABLE
2
LTYPE
5
5
100
AcDbSymbolTable
0
LTYPE
5
14
100
AcDbSymbolTableRecord
100
AcDbLinetypeTableRecord
2
BYBLOCK
70
0
0
LTYPE
5
15
100
AcDbSymbolTableRecord
100
AcDbLinetypeTableRecord
2
BYLAYER
70
0
0
ENDTAB
0
TABLE
2
LAYER
5
2
100
AcDbSymbolTable
70
2
0
LAYER
5
50
100
AcDbSymbolTableRecord
100
AcDbLayerTableRecord
2
0
70
0
6
CONTINUOUS
0
ENDTAB
0
TABLE
2
STYLE
5
3
100
AcDbSymbolTable
70
1
0
STYLE
5
11
100
AcDbSymbolTableRecord
100
AcDbTextStyleTableRecord
2
STANDARD
70
0
0
ENDTAB
0
TABLE
2
VIEW
5
6
100
AcDbSymbolTable
70
0
0
ENDTAB
0
TABLE
2
UCS
5
7
100
AcDbSymbolTable
70
0
0
ENDTAB
0
TABLE
2
APPID
5
9
100
AcDbSymbolTable
70
2
0
APPID
5
12
100
AcDbSymbolTableRecord
100
AcDbRegAppTableRecord
2
ACAD
70
0
0
ENDTAB
0
TABLE
2
DIMSTYLE
5
A
100
AcDbSymbolTable
70
1
0
ENDTAB
0
TABLE
2
BLOCK_RECORD
5
1
100
AcDbSymbolTable
70
1
0
BLOCK_RECORD
5
1F
100
AcDbSymbolTableRecord
100
AcDbBlockTableRecord
2
*MODEL_SPACE
0
BLOCK_RECORD
5
1B
100
AcDbSymbolTableRecord
100
AcDbBlockTableRecord
2
*PAPER_SPACE
0
ENDTAB
0
ENDSEC
0
SECTION
2
BLOCKS
0
BLOCK
5
20
100
AcDbEntity
100
AcDbBlockBegin
2
*MODEL_SPACE
0
ENDBLK
5
21
100
AcDbEntity
100
AcDbBlockEnd
0
BLOCK
5
1C
100
AcDbEntity
100
AcDbBlockBegin
2
*PAPER_SPACE
0
ENDBLK
5
1D
100
AcDbEntity
100
AcDbBlockEnd
0
ENDSEC
0
SECTION
2
ENTITIES
0
LWPOLYLINE
5
100
100
AcDbEntity
8
0
100
AcDbPolyline
90
104
70
1
43
0.0
10
98.239999999999995
20
33.375
10
98.239999999999995
20
20.865000000000002
10
100.16970559999999
20
20.864999999999995
10
100.23999999999999
20
20.7947056
10
100.23999999999999
20
3.0702943999999999
10
100.16970560000001
20
3
10
81.945294399999995
20
3
10
81.875
20
3.0702943999999999
10
81.875
20
4.9999999999999991
10
69.364999999999995
20
5
10
69.364999999999995
20
3.0702943999999999
10
69.2947056
20
3
10
56.445294400000002
20
3
10
56.375
20
3.0702943999999999
10
56.374999999999993
20
4.9999999999999991
10
43.864999999999995
20
5
10
43.864999999999995
20
3.0702943999999999
10
43.794705600000007
20
3
10
30.945294399999995
20
3
10
30.875
20
3.0702943999999999
10
30.875
20
4.9999999999999991
10
18.364999999999998
20
4.9999999999999991
10
18.364999999999998
20
3.0702943999999999
10
18.2947056
20
3
10
0.070294399999999993
20
3
10
0
20
3.0702943999999999
10
0
20
20.794705600000004
10
0.070294399999999979
20
20.865000000000002
10
2
20
20.865000000000002
10
1.9999999999999998
20
33.375
10
0.070294399999999993
20
33.375
10
0
20
33.445294399999995
10
0
20
46.294705600000015
10
0.070294399999999979
20
46.365000000000009
10
2
20
46.365000000000009
10
1.9999999999999998
20
58.874999999999993
10
0.070294399999999993
20
58.874999999999993
10
0
20
58.945294400000002
10
0
20
71.7947056
10
0.070294400000000257
20
71.864999999999981
10
2
20
71.864999999999981
10
1.9999999999999998
20
84.375
10
0.070294399999999993
20
84.375
10
0
20
84.445294399999995
10
0
20
97.294705599999986
10
0.070294400000000257
20
97.364999999999995
10
2
20
97.364999999999995
10
1.9999999999999998
20
109.87499999999999
10
0.070294399999999993
20
109.87499999999999
10
0
20
109.94529440000001
10
0
20
122.79470559999999
10
0.070294399999999979
20
122.86499999999998
10
2
20
122.86500000000001
10
2
20
135.375
10
0.070294399999999993
20
135.375
10
0
20
135.44529440000002
10
0
20
153.16970559999999
10
0.070294399999999424
20
153.24000000000001
10
18.2947056
20
153.24000000000001
10
18.364999999999998
20
153.16970559999999
10
18.364999999999998
20
151.24000000000001
10
30.875
20
151.24000000000001
10
30.875
20
153.16970559999999
10
30.945294399999995
20
153.24000000000001
10
43.794705600000007
20
153.24000000000001
10
43.864999999999995
20
153.16970559999999
10
43.865000000000009
20
151.24000000000001
10
56.375
20
151.24000000000001
10
56.375
20
153.16970559999999
10
56.445294400000002
20
153.24000000000001
10
69.2947056
20
153.24000000000001
10
69.364999999999995
20
153.16970559999999
10
69.364999999999981
20
151.24000000000001
10
81.875
20
151.24000000000001
10
81.875
20
153.16970559999999
10
81.945294399999995
20
153.24000000000001
10
100.16970560000001
20
153.24000000000001
10
100.23999999999999
20
153.16970559999999
10
100.24000000000001
20
135.44529440000002
10
100.16970560000001
20
135.375
10
98.239999999999995
20
135.375
10
98.239999999999995
20
122.86499999999998
10
100.16970560000001
20
122.86499999999998
10
100.23999999999999
20
122.79470559999999
10
100.24000000000001
20
109.94529439999999
10
100.16970560000001
20
109.87499999999999
10
98.239999999999995
20
109.87499999999999
10
98.239999999999995
20
97.364999999999995
10
100.16970560000001
20
97.364999999999995
10
100.23999999999999
20
97.294705599999986
10
100.24000000000001
20
84.445294399999995
10
100.16970560000001
20
84.375
10
98.239999999999995
20
84.375
10
98.239999999999995
20
71.864999999999981
10
100.16970560000001
20
71.864999999999981
10
100.23999999999999
20
71.7947056
10
100.23999999999999
20
58.945294400000002
10
100.16970560000001
20
58.874999999999993
10
98.239999999999995
20
58.874999999999993
10
98.239999999999995
20
46.365000000000009
10
100.16970560000001
20
46.365000000000009
10
100.23999999999999
20
46.294705600000015
10
100.24000000000001
20
33.445294399999995
10
100.16970560000001
20
33.375
0
LWPOLYLINE
5
101
100
AcDbEntity
8
0
100
AcDbPolyline
90
128
70
1
43
0.0
10
184.61500000000001
20
3.0702943999999999
10
184.61500000000001
20
4.9999999999999991
10
172.10499999999996
20
4.9999999999999991
10
172.10499999999999
20
3.0702943999999999
10
172.0347056
20
3
10
159.1852944
20
3
10
159.11500000000001
20
3.0702943999999999
10
159.11500000000001
20
4.9999999999999991
10
146.60499999999999
20
4.9999999999999991
10
146.60499999999999
20
3.0702943999999999
10
146.5347056
20
3
10
133.6852944
20
3
10
133.61500000000001
20
3.0702943999999999
10
133.61500000000001
20
4.9999999999999991
10
121.105
20
5
10
121.105
20
3.0702943999999999
10
121.0347056
20
3
10
105.31029440000003
20
3
10
105.23999999999999
20
3.0702943999999999
10
105.23999999999999
20
20.625
10
103.3102944
20
20.625
10
103.23999999999999
20
20.695294399999998
10
103.23999999999999
20
33.544705600000007
10
103.3102944
20
33.615000000000002
10
105.23999999999999
20
33.615000000000002
10
105.23999999999999
20
46.125
10
103.3102944
20
46.125
10
103.23999999999999
20
46.195294399999995
10
103.23999999999999
20
59.0447056
10
103.3102944
20
59.115000000000009
10
105.23999999999999
20
59.115000000000009
10
105.23999999999999
20
71.625
10
103.3102944
20
71.625
10
103.23999999999999
20
71.695294400000023
10
103.23999999999999
20
84.544705600000015
10
103.3102944
20
84.614999999999995
10
105.23999999999999
20
84.615000000000009
10
105.23999999999999
20
97.125
10
103.3102944
20
97.125
10
103.23999999999999
20
97.195294400000009
10
103.23999999999999
20
110.04470559999999
10
103.3102944
20
110.11499999999999
10
105.23999999999999
20
110.11499999999999
10
105.23999999999999
20
122.62500000000001
10
103.3102944
20
122.62500000000001
10
103.23999999999999
20
122.69529440000002
10
103.23999999999999
20
135.54470559999999
10
103.3102944
20
135.61500000000001
10
105.23999999999999
20
135.61500000000001
10
105.23999999999999
20
153.16970559999999
10
105.31029440000003
20
153.24000000000001
10
121.0347056
20
153.24000000000001
10
121.105
20
153.16970559999999
10
121.105
20
151.24000000000001
10
133.61500000000001
20
151.24000000000001
10
133.61500000000001
20
153.16970559999999
10
133.6852944
20
153.24000000000001
10
146.5347056
20
153.24000000000001
10
146.60499999999999
20
153.16970559999999
10
146.60499999999999
20
151.24000000000001
10
159.11500000000001
20
151.24000000000001
10
159.11500000000001
20
153.16970559999999
10
159.1852944
20
153.24000000000001
10
172.03470559999997
20
153.24000000000001
10
172.10499999999996
20
153.16970559999999
10
172.10499999999996
20
151.24000000000001
10
184.61500000000001
20
151.24000000000001
10
184.61500000000001
20
153.16970559999999
10
184.6852944
20
153.24000000000001
10
197.5347056
20
153.24000000000001
10
197.60500000000002
20
153.16970559999999
10
197.60499999999996
20
151.24000000000001
10
210.11499999999998
20
151.24000000000001
10
210.11499999999998
20
153.16970559999999
10
210.18529440000003
20
153.24000000000001
10
223.0347056
20
153.24000000000001
10
223.10499999999996
20
153.16970559999999
10
223.10499999999996
20
151.24000000000001
10
235.61500000000001
20
151.24000000000001
10
235.61500000000001
20
153.16970559999999
10
235.68529440000003
20
153.24000000000001
10
251.4097056
20
153.24000000000001
10
251.47999999999999
20
153.16970559999999
10
251.47999999999999
20
135.61500000000001
10
253.40970560000002
20
135.61500000000001
10
253.47999999999999
20
135.54470559999999
10
253.47999999999999
20
122.69529440000001
10
253.40970560000002
20
122.62500000000001
10
251.47999999999999
20
122.62500000000001
10
251.47999999999999
20
110.11499999999999
10
253.4097056
20
110.11499999999998
10
253.47999999999999
20
110.04470559999999
10
253.47999999999999
20
97.195294400000009
10
253.40970560000002
20
97.125
10
251.47999999999999
20
97.125
10
251.47999999999999
20
84.614999999999995
10
253.40970560000002
20
84.614999999999995
10
253.47999999999999
20
84.544705600000015
10
253.47999999999999
20
71.695294400000009
10
253.40970560000002
20
71.625
10
251.47999999999999
20
71.625
10
251.47999999999999
20
59.115000000000009
10
253.4097056
20
59.115000000000009
10
253.47999999999999
20
59.0447056
10
253.47999999999999
20
46.195294399999995
10
253.40970560000002
20
46.125
10
251.47999999999999
20
46.125
10
251.47999999999999
20
33.615000000000002
10
253.4097056
20
33.615000000000002
10
253.47999999999999
20
33.544705600000007
10
253.47999999999999
20
20.695294399999998
10
253.40970560000002
20
20.625
10
251.47999999999999
20
20.625
10
251.47999999999999
20
3.0702943999999999
10
251.4097056
20
3
10
235.68529440000003
20
3
10
235.61500000000001
20
3.0702943999999999
10
235.61500000000001
20
4.9999999999999991
10
223.10499999999996
20
5
10
223.10500000000002
20
3.0702943999999999
10
223.0347056
20
3
10
210.18529440000003
20
3
10
210.11499999999998
20
3.0702943999999999
10
210.11500000000001
20
4.9999999999999991
10
197.60500000000002
20
4.9999999999999991
10
197.60500000000002
20
3.0702943999999999
10
197.5347056
20
3
10
184.6852944
20
3
0
LWPOLYLINE
5
102
100
AcDbEntity
8
0
100
AcDbPolyline
90
104
70
1
43
0.0
10
356.72000000000003
20
59.0447056
10
356.72000000000003
20
46.195294399999995
10
356.64970560000006
20
46.125
10
354.72000000000003
20
46.125
10
354.72000000000003
20
33.615000000000002
10
356.64970560000006
20
33.615000000000002
10
356.72000000000003
20
33.544705600000007
10
356.72000000000003
20
20.695294399999998
10
356.64970560000006
20
20.625
10
354.72000000000003
20
20.625
10
354.72000000000003
20
5.0702944000000008
10
354.64970560000006
20
4.9999999999999991
10
338.59500000000003
20
5
10
338.59500000000003
20
3.0702943999999999
10
338.52470560000006
20
3
10
325.67529439999998
20
3
10
325.60500000000002
20
3.0702943999999999
10
325.60500000000002
20
4.9999999999999991
10
313.09500000000003
20
5
10
313.09500000000003
20
3.0702943999999999
10
313.02470560000006
20
3
10
300.17529439999998
20
3
10
300.10500000000002
20
3.0702943999999999
10
300.10500000000002
20
4.9999999999999991
10
287.59499999999997
20
4.9999999999999991
10
287.59499999999997
20
3.0702943999999999
10
287.52470560000006
20
3
10
274.67529439999998
20
3
10
274.60500000000002
20
3.0702943999999999
10
274.60500000000002
20
4.9999999999999991
10
258.55029440000004
20
5
10
258.48000000000002
20
5.0702944000000016
10
258.48000000000002
20
20.625
10
256.55029440000004
20
20.625
10
256.48000000000002
20
20.695294399999998
10
256.48000000000002
20
33.544705600000007
10
256.55029440000004
20
33.615000000000002
10
258.48000000000002
20
33.615000000000002
10
258.48000000000002
20
46.125
10
256.55029440000004
20
46.125
10
256.48000000000002
20
46.195294399999995
10
256.48000000000002
20
59.0447056
10
256.55029440000004
20
59.115000000000009
10
258.48000000000002
20
59.115000000000009
10
258.48000000000002
20
71.625
10
256.55029440000004
20
71.625
10
256.48000000000002
20
71.695294400000023
10
256.48000000000002
20
84.544705600000015
10
256.55029440000004
20
84.614999999999995
10
258.48000000000002
20
84.615000000000009
10
258.48000000000002
20
97.125
10
256.55029440000004
20
97.124999999999986
10
256.48000000000002
20
97.195294400000009
10
256.48000000000002
20
110.04470559999999
10
256.55029440000004
20
110.11499999999999
10
258.48000000000002
20
110.11499999999999
10
258.48000000000002
20
122.62500000000001
10
256.55029440000004
20
122.62500000000001
10
256.48000000000002
20
122.69529440000001
10
256.48000000000002
20
135.54470559999996
10
256.55029440000004
20
135.61500000000001
10
258.48000000000002
20
135.61500000000001
10
258.48000000000002
20
151.16970559999999
10
258.55029440000004
20
151.24000000000001
10
274.60500000000002
20
151.24000000000001
10
274.60500000000002
20
153.16970559999999
10
274.67529439999998
20
153.24000000000001
10
287.52470560000006
20
153.24000000000001
10
287.59499999999997
20
153.16970559999999
10
287.59499999999997
20
151.24000000000001
10
300.10500000000002
20
151.24000000000001
10
300.10500000000002
20
153.16970559999999
10
300.17529439999998
20
153.24000000000001
10
313.02470560000006
20
153.24000000000001
10
313.09500000000003
20
153.16970559999999
10
313.09500000000003
20
151.24000000000001
10
325.60500000000002
20
151.24000000000001
10
325.60500000000002
20
153.16970559999999
10
325.67529439999998
20
153.24000000000001
10
338.52470560000006
20
153.24000000000001
10
338.59500000000003
20
153.16970559999999
10
338.59500000000003
20
151.24000000000001
10
354.64970560000006
20
151.24000000000001
10
354.72000000000003
20
151.16970559999999
10
354.72000000000003
20
135.61500000000001
10
356.64970560000006
20
135.61500000000001
10
356.72000000000003
20
135.54470559999996
10
356.72000000000003
20
122.69529440000001
10
356.64970560000006
20
122.62500000000001
10
354.72000000000003
20
122.62500000000001
10
354.72000000000003
20
110.11499999999999
10
356.64970560000006
20
110.11499999999999
10
356.72000000000003
20
110.04470559999999
10
356.72000000000003
20
97.195294400000023
10
356.64970560000006
20
97.125
10
354.72000000000003
20
97.125
10
354.72000000000003
20
84.614999999999995
10
356.64970560000006
20
84.614999999999995
10
356.72000000000003
20
84.544705600000015
10
356.72000000000003
20
71.695294400000023
10
356.64970560000006
20
71.625
10
354.72000000000003
20
71.625
10
354.72000000000003
20
59.115000000000009
10
356.64970560000006
20
59.115000000000009
0
LWPOLYLINE
5
103
100
AcDbEntity
8
0
100
AcDbPolyline
90
104
70
1
43
0.0
10
18.364999999999998
20
158.24000000000001
10
18.364999999999998
20
156.3102944
10
18.2947056
20
156.24000000000001
10
0.070294399999999993
20
156.24000000000001
10
0
20
156.3102944
10
0
20
174.0347056
10
0.070294400000000257
20
174.10499999999999
10
2
20
174.10499999999999
10
1.9999999999999998
20
186.61500000000001
10
0.070294399999999993
20
186.61500000000001
10
0
20
186.6852944
10
0
20
199.5347056
10
0.070294399999999979
20
199.60499999999999
10
2
20
199.60499999999999
10
2
20
212.11500000000001
10
0.070294399999999993
20
212.11500000000001
10
0
20
212.18529439999998
10
0
20
225.03470559999997
10
0.070294400000000257
20
225.10500000000002
10
2
20
225.10500000000002
10
2
20
237.61500000000001
10
0.070294399999999993
20
237.61499999999998
10
0
20
237.68529439999998
10
0
20
250.5347056
10
0.070294400000000257
20
250.60500000000002
10
2
20
250.60500000000002
10
2
20
263.11500000000001
10
0.070294399999999993
20
263.11500000000001
10
0
20
263.18529440000003
10
0
20
276.03470560000005
10
0.070294399999999979
20
276.10500000000002
10
2
20
276.10500000000002
10
1.9999999999999998
20
288.61500000000001
10
0.070294399999999993
20
288.61500000000001
10
0
20
288.68529439999998
10
0
20
306.40970560000005
10
0.070294399999999424
20
306.48000000000002
10
18.2947056
20
306.48000000000002
10
18.364999999999998
20
306.40970560000005
10
18.364999999999998
20
304.48000000000002
10
30.875
20
304.48000000000002
10
30.875
20
306.40970560000005
10
30.945294399999995
20
306.48000000000002
10
43.794705600000007
20
306.48000000000002
10
43.864999999999995
20
306.40970560000005
10
43.864999999999995
20
304.48000000000002
10
56.375
20
304.48000000000002
10
56.374999999999993
20
306.40970560000005
10
56.445294400000002
20
306.48000000000002
10
69.2947056
20
306.48000000000002
10
69.364999999999995
20
306.40970560000005
10
69.364999999999995
20
304.48000000000002
10
81.875
20
304.48000000000002
10
81.875
20
306.40970560000005
10
81.945294399999995
20
306.48000000000002
10
100.16970560000001
20
306.48000000000002
10
100.23999999999999
20
306.40970560000005
10
100.23999999999999
20
288.68529439999998
10
100.16970560000001
20
288.61500000000001
10
98.239999999999995
20
288.61500000000001
10
98.239999999999995
20
276.10500000000002
10
100.16970559999999
20
276.10500000000008
10
100.23999999999999
20
276.03470560000005
10
100.23999999999999
20
263.18529440000003
10
100.16970560000001
20
263.11500000000001
10
98.239999999999995
20
263.11500000000001
10
98.239999999999995
20
250.60500000000002
10
100.16970559999999
20
250.60500000000002
10
100.23999999999999
20
250.5347056
10
100.24000000000001
20
237.68529440000003
10
100.16970560000001
20
237.61500000000001
10
98.239999999999995
20
237.61500000000001
10
98.239999999999995
20
225.10500000000002
10
100.16970560000001
20
225.10500000000002
10
100.23999999999999
20
225.03470559999997
10
100.23999999999999
20
212.18529439999998
10
100.16970560000001
20
212.11500000000001
10
98.239999999999995
20
212.11500000000001
10
98.239999999999995
20
199.60499999999999
10
100.16970559999999
20
199.60499999999999
10
100.23999999999999
20
199.5347056
10
100.24000000000001
20
186.6852944
10
100.16970560000001
20
186.61500000000001
10
98.239999999999995
20
186.61500000000001
10
98.239999999999995
20
174.10499999999999
10
100.16970560000001
20
174.10499999999999
10
100.23999999999999
20
174.0347056
10
100.23999999999999
20
156.3102944
10
100.16970560000001
20
156.24000000000001
10
81.945294399999995
20
156.24000000000001
10
81.875
20
156.3102944
10
81.875
20
158.24000000000001
10
69.364999999999995
20
158.24000000000001
10
69.364999999999995
20
156.3102944
10
69.2947056
20
156.24000000000001
10
56.445294400000002
20
156.24000000000001
10
56.375
20
156.3102944
10
56.375
20
158.24000000000001
10
43.864999999999995
20
158.24000000000001
10
43.864999999999995
20
156.3102944
10
43.794705600000007
20
156.24000000000001
10
30.945294399999995
20
156.24000000000001
10
30.875
20
156.3102944
10
30.875
20
158.24000000000001
0
LWPOLYLINE
5
104
100
AcDbEntity
8
0
100
AcDbPolyline
90
128
70
1
43
0.0
10
103.23999999999999
20
199.43529439999998
10
103.23999999999999
20
212.2847056
10
103.3102944
20
212.35500000000002
10
105.23999999999999
20
212.35499999999999
10
105.23999999999999
20
224.86500000000001
10
103.3102944
20
224.86500000000001
10
103.23999999999999
20
224.9352944
10
103.23999999999999
20
237.78470560000002
10
103.3102944
20
237.85499999999999
10
105.23999999999999
20
237.85499999999999
10
105.23999999999999
20
250.36500000000001
10
103.3102944
20
250.36500000000001
10
103.23999999999999
20
250.4352944
10
103.23999999999999
20
263.2847056
10
103.3102944
20
263.35500000000002
10
105.23999999999999
20
263.35500000000002
10
105.23999999999999
20
275.86499999999995
10
103.3102944
20
275.86499999999995
10
103.23999999999999
20
275.93529439999998
10
103.23999999999999
20
288.78470560000005
10
103.3102944
20
288.85500000000002
10
105.23999999999999
20
288.85500000000002
10
105.23999999999999
20
306.40970560000005
10
105.31029440000003
20
306.48000000000002
10
121.03470559999998
20
306.48000000000002
10
121.105
20
306.40970560000005
10
121.105
20
304.48000000000002
10
133.61500000000001
20
304.48000000000002
10
133.61500000000001
20
306.40970560000005
10
133.6852944
20
306.48000000000002
10
146.5347056
20
306.48000000000002
10
146.60499999999999
20
306.40970560000005
10
146.60499999999999
20
304.48000000000002
10
159.11500000000001
20
304.48000000000002
10
159.11500000000001
20
306.40970560000005
10
159.1852944
20
306.48000000000002
10
172.0347056
20
306.48000000000002
10
172.10499999999996
20
306.40970560000005
10
172.10499999999996
20
304.48000000000002
10
184.61500000000001
20
304.48000000000002
10
184.61500000000001
20
306.40970560000005
10
184.6852944
20
306.48000000000002
10
197.5347056
20
306.48000000000002
10
197.60500000000002
20
306.40970560000005
10
197.60500000000002
20
304.48000000000002
10
210.11499999999998
20
304.48000000000002
10
210.11499999999998
20
306.40970560000005
10
210.18529440000003
20
306.48000000000002
10
223.03470559999997
20
306.48000000000002
10
223.10499999999996
20
306.40970560000005
10
223.10499999999996
20
304.48000000000002
10
235.61500000000001
20
304.48000000000002
10
235.61500000000001
20
306.40970560000005
10
235.68529439999998
20
306.48000000000002
10
251.4097056
20
306.48000000000002
10
251.47999999999999
20
306.40970560000005
10
251.47999999999999
20
288.85500000000002
10
253.4097056
20
288.85500000000002
10
253.47999999999999
20
288.78470560000005
10
253.48000000000002
20
275.93529439999998
10
253.40970560000002
20
275.86499999999995
10
251.47999999999999
20
275.86499999999995
10
251.47999999999999
20
263.35500000000002
10
253.4097056
20
263.35500000000002
10
253.47999999999999
20
263.2847056
10
253.48000000000002
20
250.43529440000003
10
253.40970560000002
20
250.36500000000001
10
251.47999999999999
20
250.36500000000001
10
251.47999999999999
20
237.85499999999999
10
253.40970560000002
20
237.85499999999999
10
253.47999999999999
20
237.78470560000002
10
253.47999999999999
20
224.9352944
10
253.40970560000002
20
224.86500000000001
10
251.47999999999999
20
224.86500000000001
10
251.47999999999999
20
212.35500000000002
10
253.40970560000002
20
212.35500000000002
10
253.47999999999999
20
212.2847056
10
253.48000000000002
20
199.43529440000003
10
253.40970560000002
20
199.36500000000001
10
251.47999999999999
20
199.36499999999998
10
251.47999999999999
20
186.85499999999996
10
253.4097056
20
186.85499999999996
10
253.47999999999999
20
186.78470559999997
10
253.48000000000002
20
173.93529440000003
10
253.40970560000002
20
173.86500000000001
10
251.47999999999999
20
173.86500000000001
10
251.47999999999999
20
156.3102944
10
251.4097056
20
156.24000000000001
10
235.68529440000003
20
156.24000000000001
10
235.61500000000001
20
156.3102944
10
235.61500000000001
20
158.24000000000001
10
223.10499999999996
20
158.24000000000001
10
223.10499999999996
20
156.3102944
10
223.0347056
20
156.24000000000001
10
210.18529440000003
20
156.24000000000001
10
210.11499999999998
20
156.3102944
10
210.11500000000001
20
158.24000000000001
10
197.60500000000002
20
158.24000000000001
10
197.60500000000002
20
156.3102944
10
197.5347056
20
156.24000000000001
10
184.6852944
20
156.24000000000001
10
184.61500000000001
20
156.3102944
10
184.61500000000001
20
158.24000000000001
10
172.10499999999996
20
158.24000000000001
10
172.10499999999996
20
156.3102944
10
172.0347056
20
156.24000000000001
10
159.1852944
20
156.24000000000001
10
159.11500000000001
20
156.3102944
10
159.11500000000001
20
158.24000000000001
10
146.60499999999999
20
158.24000000000001
10
146.60499999999999
20
156.3102944
10
146.5347056
20
156.24000000000001
10
133.6852944
20
156.24000000000001
10
133.61500000000001
20
156.3102944
10
133.61500000000001
20
158.24000000000001
10
121.105
20
158.24000000000001
10
121.10499999999999
20
156.3102944
10
121.03470559999998
20
156.24000000000001
10
105.31029440000003
20
156.24000000000001
10
105.23999999999999
20
156.3102944
10
105.23999999999999
20
173.86500000000001
10
103.3102944
20
173.86500000000001
10
103.23999999999999
20
173.93529439999998
10
103.23999999999999
20
186.78470559999997
10
103.3102944
20
186.85499999999996
10
105.23999999999999
20
186.85500000000002
10
105.23999999999999
20
199.36500000000001
10
103.3102944
20
199.36499999999998
0
LWPOLYLINE
5
105
100
AcDbEntity
8
0
100
AcDbPolyline
90
104
70
1
43
0.0
10
287.59499999999997
20
158.24000000000001
10
287.59499999999997
20
156.3102944
10
287.52470560000006
20
156.24000000000001
10
274.67529439999998
20
156.24000000000001
10
274.60500000000002
20
156.3102944
10
274.60500000000002
20
158.24000000000001
10
258.55029440000004
20
158.24000000000001
10
258.48000000000002
20
158.3102944
10
258.48000000000002
20
173.86500000000001
10
256.55029440000004
20
173.86500000000001
10
256.48000000000002
20
173.93529439999998
10
256.48000000000002
20
186.78470559999997
10
256.55029440000004
20
186.85499999999996
10
258.48000000000002
20
186.85500000000002
10
258.48000000000002
20
199.36500000000001
10
256.55029440000004
20
199.36499999999998
10
256.48000000000002
20
199.43529439999998
10
256.48000000000002
20
212.2847056
10
256.55029440000004
20
212.35500000000002
10
258.48000000000002
20
212.35500000000002
10
258.48000000000002
20
224.86500000000001
10
256.55029440000004
20
224.86500000000001
10
256.48000000000002
20
224.9352944
10
256.48000000000002
20
237.7847056
10
256.55029440000004
20
237.85499999999999
10
258.48000000000002
20
237.85499999999999
10
258.48000000000002
20
250.36500000000001
10
256.55029440000004
20
250.36500000000001
10
256.48000000000002
20
250.43529440000003
10
256.48000000000002
20
263.2847056
10
256.55029440000004
20
263.35500000000002
10
258.48000000000002
20
263.35500000000002
10
258.48000000000002
20
275.86499999999995
10
256.55029440000004
20
275.86499999999995
10
256.48000000000002
20
275.93529439999998
10
256.48000000000002
20
288.78470560000005
10
256.55029440000004
20
288.85500000000002
10
258.48000000000002
20
288.85500000000002
10
258.48000000000002
20
304.40970560000005
10
258.55029440000004
20
304.48000000000002
10
274.60500000000002
20
304.48000000000002
10
274.60500000000002
20
306.40970560000005
10
274.67529439999998
20
306.48000000000002
10
287.52470560000006
20
306.48000000000002
10
287.59499999999997
20
306.40970560000005
10
287.59499999999997
20
304.48000000000002
10
300.10500000000002
20
304.48000000000002
10
300.10500000000002
20
306.40970560000005
10
300.17529439999998
20
306.48000000000002
10
313.02470560000006
20
306.48000000000002
10
313.09500000000003
20
306.40970560000005
10
313.09500000000003
20
304.48000000000002
10
325.60500000000002
20
304.48000000000002
10
325.60500000000002
20
306.40970560000005
10
325.67529439999998
20
306.48000000000002
10
338.52470560000006
20
306.48000000000002
10
338.59500000000003
20
306.40970560000005
10
338.59500000000003
20
304.48000000000002
10
354.64970560000006
20
304.48000000000002
10
354.72000000000003
20
304.40970560000005
10
354.72000000000003
20
288.85500000000002
10
356.64970560000006
20
288.85500000000002
10
356.72000000000003
20
288.78470560000005
10
356.72000000000003
20
275.93529439999998
10
356.64970560000006
20
275.86499999999995
10
354.72000000000003
20
275.86499999999995
10
354.72000000000003
20
263.35500000000002
10
356.64970560000006
20
263.35500000000002
10
356.72000000000003
20
263.2847056
10
356.72000000000003
20
250.43529440000003
10
356.64970560000006
20
250.36500000000001
10
354.72000000000003
20
250.36500000000001
10
354.72000000000003
20
237.85499999999999
10
356.64970560000006
20
237.85500000000002
10
356.72000000000003
20
237.78470560000002
10
356.72000000000003
20
224.9352944
10
356.64970560000006
20
224.86500000000001
10
354.72000000000003
20
224.86500000000001
10
354.72000000000003
20
212.35500000000002
10
356.64970560000006
20
212.35500000000002
10
356.72000000000003
20
212.2847056
10
356.72000000000003
20
199.43529439999998
10
356.64970560000006
20
199.36500000000001
10
354.72000000000003
20
199.36500000000001
10
354.72000000000003
20
186.85499999999996
10
356.64970560000006
20
186.85499999999996
10
356.72000000000003
20
186.78470559999997
10
356.72000000000003
20
173.93529440000003
10
356.64970560000006
20
173.86500000000001
10
354.72000000000003
20
173.86500000000001
10
354.72000000000003
20
158.3102944
10
354.64970560000006
20
158.24000000000001
10
338.59500000000003
20
158.24000000000001
10
338.59500000000003
20
156.3102944
10
338.52470560000006
20
156.24000000000001
10
325.67529439999998
20
156.24000000000001
10
325.60500000000002
20
156.3102944
10
325.60500000000002
20
158.24000000000001
10
313.09500000000003
20
158.24000000000001
10
313.09500000000003
20
156.3102944
10
313.02470560000006
20
156.24000000000001
10
300.17529439999998
20
156.24000000000001
10
300.10500000000002
20
156.3102944
10
300.10500000000002
20
158.24000000000001
0
CIRCLE
5
106
100
AcDbEntity
8
0
100
AcDbCircle
10
150
20
270
30
0
40
5.0000000000000009
210
0
220
0
230
1
0
CIRCLE
5
107
100
AcDbEntity
8
0
100
AcDbCircle
10
144.99875362775086
20
107.7776392797368
30
0
40
2.4999999999999951
210
0
220
0
230
1
0
ENDSEC
0
SECTION
2
OBJECTS
0
DICTIONARY
5
C
100
AcDbDictionary
3
ACAD_GROUP
350
D
3
ACAD_MLINESTYLE
350
17
0
DICTIONARY
5
D
100
AcDbDictionary
0
DICTIONARY
5
1A
330
C
100
AcDbDictionary
0
DICTIONARY
5
17
100
AcDbDictionary
0
ENDSEC
0
EOF
